HIERARCHY
ROOT Hips
{
	OFFSET	0.00	0.00	0.00
	CHANNELS 6 Xposition Yposition Zposition Zrotation Xrotation Yrotation
	JOINT LeftUpLeg
	{
		OFFSET	 0.126116	-0.065224	 0.014019
		CHANNELS 3 Zrotation Xrotation Yrotation
		JOINT LeftLeg
		{
			OFFSET	 0.000000	 0.569914	 0.000000
			CHANNELS 3 Zrotation Xrotation Yrotation
			JOINT LeftFoot
			{
				OFFSET	 0.000000	 0.544423	 0.000000
				CHANNELS 3 Zrotation Xrotation Yrotation
				JOINT LeftToeBase
				{
					OFFSET	 0.000000	 0.207117	 0.000000
					CHANNELS 3 Zrotation Xrotation Yrotation
					End Site
					{
						OFFSET	 0.000000	 0.207117	 0.000000
					}
				}
			}
		}
	}
	JOINT RightUpLeg
	{
		OFFSET	-0.124023	-0.065224	 0.008373
		CHANNELS 3 Zrotation Xrotation Yrotation
		JOINT RightLeg
		{
			OFFSET	 0.000000	 0.570047	 0.000000
			CHANNELS 3 Zrotation Xrotation Yrotation
			JOINT RightFoot
			{
				OFFSET	 0.000000	 0.544354	 0.000000
				CHANNELS 3 Zrotation Xrotation Yrotation
				JOINT RightToeBase
				{
					OFFSET	 0.000000	 0.207540	 0.000000
					CHANNELS 3 Zrotation Xrotation Yrotation
					End Site
					{
						OFFSET	 0.000000	 0.207540	 0.000000
					}
				}
			}
		}
	}
	JOINT Spine
	{
		OFFSET	 0.000184	 0.117403	 0.007763
		CHANNELS 3 Zrotation Xrotation Yrotation
		JOINT Spine1
		{
			OFFSET	 0.000000	 0.137269	 0.000000
			CHANNELS 3 Zrotation Xrotation Yrotation
			JOINT Spine2
			{
				OFFSET	 0.000000	 0.156879	 0.000000
				CHANNELS 3 Zrotation Xrotation Yrotation
				JOINT LeftShoulder
				{
					OFFSET	 0.080501	 0.160143	 0.002496
					CHANNELS 3 Zrotation Xrotation Yrotation
					JOINT LeftArm
					{
						OFFSET	 0.000000	 0.164363	 0.000000
						CHANNELS 3 Zrotation Xrotation Yrotation
						JOINT LeftForeArm
						{
							OFFSET	 0.000000	 0.364576	 0.000000
							CHANNELS 3 Zrotation Xrotation Yrotation
							JOINT LeftHand
							{
								OFFSET	 0.000000	 0.360812	 0.000000
								CHANNELS 3 Zrotation Xrotation Yrotation
								JOINT LeftHandIndex1
								{
									OFFSET	 0.000000	 0.086006	 0.000000
									CHANNELS 3 Zrotation Xrotation Yrotation
									JOINT LeftHandIndex2
									{
										OFFSET	 0.000000	 0.047237	 0.000000
										CHANNELS 3 Zrotation Xrotation Yrotation
										JOINT LeftHandIndex3
										{
											OFFSET	-0.004284	 0.038165	 0.000551
											CHANNELS 3 Zrotation Xrotation Yrotation
											End Site
											{
												OFFSET	-0.004284	 0.038165	 0.000551
											}
										}
									}
								}
							}
						}
					}
				}
				JOINT Neck
				{
					OFFSET	 0.000000	 0.176489	 0.000000
					CHANNELS 3 Zrotation Xrotation Yrotation
					JOINT Head
					{
						OFFSET	 0.000000	 0.077941	 0.001747
						CHANNELS 3 Zrotation Xrotation Yrotation
						End Site
						{
							OFFSET	 0.000000	 0.077941	 0.001747
						}
					}
				}
				JOINT RightShoulder
				{
					OFFSET	-0.080363	 0.159706	-0.000306
					CHANNELS 3 Zrotation Xrotation Yrotation
					JOINT RightArm
					{
						OFFSET	 0.000000	 0.164196	 0.000000
						CHANNELS 3 Zrotation Xrotation Yrotation
						JOINT RightForeArm
						{
							OFFSET	 0.000000	 0.365611	 0.000000
							CHANNELS 3 Zrotation Xrotation Yrotation
							JOINT RightHand
							{
								OFFSET	 0.000000	 0.360648	 0.000000
								CHANNELS 3 Zrotation Xrotation Yrotation
								JOINT RightHandIndex1
								{
									OFFSET	 0.000000	 0.069977	 0.000000
									CHANNELS 3 Zrotation Xrotation Yrotation
									JOINT RightHandIndex2
									{
										OFFSET	 0.000000	 0.052305	 0.000000
										CHANNELS 3 Zrotation Xrotation Yrotation
										JOINT RightHandIndex3
										{
											OFFSET	 0.009002	 0.042196	 0.000782
											CHANNELS 3 Zrotation Xrotation Yrotation
											End Site
											{
												OFFSET	 0.009002	 0.042196	 0.000782
											}
										}
									}
								}
							}
						}
					}
				}
			}
		}
	}
}
MOTION
Frames:    7
Frame Time: 0.03333334
-0.044748	 1.234217	-1.246614	-3.816711	 1.512828	-174.109100	 174.708600	 7.753716	-16.749540	 4.306421	-29.532510	 6.068923	 7.423054	 80.618870	-0.013686	 1.512287	 31.240310	-2.811662	 166.756200	 27.111190	 21.059040	-5.844423	-53.556450	 6.270110	 3.969407	 70.169920	-3.300763	-1.668530	 33.137300	 2.886185	-1.446561	 8.656371	 3.750974	-2.550641	 4.191383	 2.692081	 2.858942	-4.594438	-10.714050	-121.358900	 7.423553	 94.035510	 45.671490	 32.290180	-18.901910	 4.550963	-0.235222	-0.074554	 3.631215	 16.283040	 19.903630	 4.624177	 18.856530	-1.654968	-5.863953	 21.470840	 2.373669	 5.331528	 4.340008	-0.169039	-0.168371	-5.009586	-0.144698	-2.098327	-2.267724	-5.635905	 118.423900	-0.013287	-90.826350	-6.412559	 46.180430	-0.122344	-4.900607	-0.192545	 0.050324	-2.460245	 15.479250	 11.302990	-2.438165	 25.992480	 1.336381	 15.855080	 44.981340	-11.843920	-8.529009	 23.990480	-1.227679
-0.044403	 1.232487	-1.256880	-3.765449	 0.893605	-173.840500	 175.602800	 7.934454	-19.819530	 4.391061	-30.012270	 6.382930	 9.922571	 81.466960	-2.526915	 1.531511	 31.479030	-2.820736	 165.109100	 24.785550	 25.431560	-6.115595	-54.332870	 6.264395	 10.685750	 77.898490	-8.374697	-1.676911	 33.237420	 2.890382	-1.681295	 8.041093	 6.046848	-4.053884	-2.670033	 2.489142	 3.685530	-1.457240	-10.785750	-121.352800	 7.662474	 94.154170	 40.889130	 35.603370	-16.354180	 5.044682	-0.233504	 2.439440	 7.792933	 15.493560	 20.679690	 4.655053	 18.957770	-1.671446	-5.863685	 21.559780	 2.383487	 5.335347	 4.429467	-0.167415	-0.172741	-5.029904	-0.124600	-2.022404	-2.369785	-5.645482	 118.390800	-0.154227	-90.760220	-2.025471	 46.798110	-2.940285	-5.328496	-0.188649	-2.462941	-0.232838	 16.369500	 10.016230	-2.326624	 25.160010	 1.277006	 15.647180	 44.168930	-11.522240	-8.531901	 23.154850	-1.172100
-0.042212	 1.238030	-1.327997	-3.557549	 2.262696	-173.084600	 176.643700	 0.113417	-22.570120	 3.499771	-24.728520	 6.787311	 15.718810	 81.815930	-9.703201	 1.589347	 32.190240	-2.848472	 169.043700	-1.708799	 27.820340	-3.642970	-40.198120	 9.063749	 157.326300	 77.110210	-144.555900	-1.701988	 33.535690	 2.903019	-2.945303	-0.408646	 13.175540	-8.118755	-24.637030	 1.092439	 5.768793	 8.318304	-11.295160	-121.337400	 8.374410	 94.507930	 7.988527	 49.124660	 5.219755	 6.653529	-0.236221	 9.853424	 20.248220	 13.791090	 26.902430	 4.747329	 19.259320	-1.720942	-5.862981	 21.824750	 2.412769	 5.346714	 4.695981	-0.162611	-0.185719	-5.090441	-0.064731	-1.796155	-2.674017	-5.673196	 118.292900	-0.574283	-90.563710	 24.896560	 48.189890	-22.843880	-6.756149	-0.183437	-9.874867	 9.134356	 16.368330	 5.566143	-2.003856	 22.677910	 1.112660	 15.079680	 41.742520	-10.611420	-8.535279	 20.663900	-1.008590
-0.043441	 1.231282	-1.276770	-3.584576	 0.607888	-173.533400	 177.848100	 6.686726	-27.436810	 4.406587	-30.099710	 6.699823	 14.120620	 82.995880	-7.061237	 1.553414	 31.749610	-2.831163	 162.637300	 17.609600	 33.666060	-5.877497	-53.710230	 6.816516	 65.904360	 86.171210	-60.695880	-1.686432	 33.350890	 2.895167	-1.993685	 6.958801	 8.721240	-6.240425	-13.168030	 1.859729	 4.846477	 3.317556	-10.952700	-121.346400	 7.933302	 94.288700	 30.484770	 40.855890	-10.358020	 5.558214	-0.229260	 5.278665	 13.942870	 14.855490	 22.601040	 4.690106	 19.072500	-1.690205	-5.863400	 21.660580	 2.394621	 5.339674	 4.530860	-0.165581	-0.177686	-5.052933	-0.101822	-1.936342	-2.485516	-5.656130	 118.353400	-0.313973	-90.685400	 6.105138	 47.290250	-8.541212	-5.721127	-0.180618	-5.301368	 2.564504	 17.357840	 8.156576	-2.202196	 24.216010	 1.212312	 15.422430	 43.246800	-11.167640	-8.534099	 22.207380	-1.109547
-0.043128	 1.231052	-1.272943	-3.566409	-0.748631	-173.598700	 178.385000	 8.169283	-30.027800	 4.429614	-30.229170	 6.650076	 12.534140	 83.104170	-5.350906	 1.549064	 31.695990	-2.829085	 158.986500	 30.323410	 38.845490	-5.753592	-53.128050	 6.850479	-2.257689	 76.651790	 0.673464	-1.684543	 33.328410	 2.894216	-0.705148	 6.649140	-1.198420	-2.939262	 3.709404	 2.664914	 3.016374	-4.435276	-10.842100	-121.347600	 7.879641	 94.262020	 42.497700	 31.089310	-16.275490	 5.385560	-0.226528	-4.859479	 11.632470	 16.683010	 17.838030	 4.683154	 19.049760	-1.686481	-5.863454	 21.640610	 2.392414	 5.338817	 4.510769	-0.165944	-0.176707	-5.048369	-0.106336	-1.953397	-2.462588	-5.654013	 118.360700	-0.282314	-90.700210	-2.789844	 43.865150	-1.935475	-5.621579	-0.181343	 4.836365	-2.342581	 19.792770	 10.178690	-2.226688	 24.403100	 1.224916	 15.466070	 43.429620	-11.237090	-8.533751	 22.395150	-1.121907
-0.038364	 1.209461	-1.464301	-4.019713	-2.487480	-171.853600	 178.409700	-1.620136	-27.330400	 3.743220	-26.222250	 8.058838	 49.826250	 87.369470	-47.534630	 1.672744	 33.197300	-2.889596	 160.916300	 39.690060	 40.988400	-1.922920	-24.048590	 12.188550	 3.635699	 75.855480	-11.680290	-1.737784	 33.958050	 2.921259	 0.590538	 5.666660	-17.186810	-2.756923	 4.502231	 2.074399	 2.819868	-4.978038	-11.278260	-121.323400	 9.382684	 95.009770	 47.683720	 19.907870	-14.964810	 8.544862	-0.225489	-19.957690	 24.345160	 17.767910	 7.235317	 4.878765	 19.686200	-1.792071	-5.862232	 22.199950	 2.454322	 5.362780	 5.073380	-0.155896	-0.203989	-5.176189	 0.020034	-1.475592	-3.105114	-5.710649	 118.156900	-1.169695	-90.286600	 9.368196	 36.210060	-7.835796	-8.948870	-0.186701	 19.936010	-2.918825	 32.748050	 4.666731	-1.568652	 19.161730	 0.909815	 14.393850	 38.296350	-9.428012	-8.527263	 17.136510	-0.781393
-0.009410	 1.176419	-1.846846	-1.242265	-0.065830	-168.843200	-171.523500	-14.020840	-22.941190	 5.556797	-36.150110	 4.740304	-28.673860	 62.032110	 21.980530	 6.853694	 66.916550	-5.673327	 168.985200	 34.869510	 34.021160	-2.418236	-29.298290	 9.746204	-19.898540	 63.846100	 4.515374	-1.766620	 34.295420	 2.936121	 5.107527	 3.466378	-41.379660	-2.324093	 3.024796	 0.698019	 3.293223	-3.762599	-11.491310	-120.919900	 8.840539	 94.698690	 45.591160	 19.894380	-15.472630	 13.322950	-0.230335	-42.071720	 22.271750	 19.132680	 6.636261	 5.217919	 21.126780	-2.005696	-5.864622	 24.641660	 2.727576	 5.500226	 8.332704	-0.102234	-0.092078	-5.124599	 0.040099	-1.747085	-1.480187	-4.418046	 119.484500	-2.256268	-89.807020	 6.301187	 35.079960	-2.132475	-13.534070	-0.182340	 42.055020	 7.934210	 30.696810	-3.944329	-1.690547	 9.874000	 0.969169	 13.155430	 29.680320	-6.883349	-8.447474	 8.423446	-0.230542
